<svg xmlns="http://www.w3.org/2000/svg" xmlns:xlink="http://www.w3.org/1999/xlink" style="isolation:isolate" viewBox="0 0 24 24" version="1.1"><defs><clipPath id="clip-a-5782"><rect width="13" height="24" x="0" y="0"></rect></clipPath><clipPath id="clip-b-5782"><rect width="12" height="24" x="12" y="0"></rect></clipPath></defs><g style="fill: #1e88e5" clip-path="url(#clip-a-5782)"><path d="M 21.999999,17.773502 12,23.547005 2.0000006,17.773502 l 0,-11.5470044 L 12,0.4529953 21.999999,6.2264977 Z"></path></g><g style="fill: #1976d2" clip-path="url(#clip-b-5782)"><path d="M 21.999999,17.773502 12,23.547005 2.0000006,17.773502 l 0,-11.5470044 L 12,0.4529953 21.999999,6.2264977 Z"></path></g><g style="fill: #ff8a65" clip-path="url(#clip-a-5782)"><rect width="14" height="3" x="5" y="8" rx="1" ry="1"></rect></g><g style="fill: #ff7043" clip-path="url(#clip-b-5782)"><rect width="14" height="3" x="5" y="8" rx="1" ry="1"></rect></g><g style="fill: #ff8a65" clip-path="url(#clip-a-5782)"><path d="m 12,17.5 c 2.33,0 4.31,-1.46 5.11,-3.5 H 6.89 c 0.8,2.04 2.78,3.5 5.11,3.5 z"></path></g><g style="fill: #ff7043" clip-path="url(#clip-b-5782)"><path d="m 12,17.5 c 2.33,0 4.31,-1.46 5.11,-3.5 H 6.89 c 0.8,2.04 2.78,3.5 5.11,3.5 z"></path></g></svg>